<?xml version="1.0" encoding="UTF-8"?>
<svg width="225px" height="226px" viewBox="0 0 225 226" version="1.1" xmlns="http://www.w3.org/2000/svg" xmlns:xlink="http://www.w3.org/1999/xlink">
    <!-- Generator: Sketch 57.1 (83088) - https://sketch.com -->
    <title>Slice</title>
    <desc>Created with Sketch.</desc>
    <g id="Page-1" stroke="none" stroke-width="1" fill="none" fill-rule="evenodd">
        <g id="4-nobs" transform="translate(15.000000, 0.500000)" fill="#191919">
            <path d="M87.5,37 L87.501,14.924 L81.5662485,14.9247868 C81.2179667,14.9743564 80.8619781,15 80.5,15 C80.1391832,15 79.7843174,14.9745207 79.4371037,14.9252631 L79.4371037,14.9252631 L79.075,14.925 L79.0748253,14.8647638 C75.6142543,14.1990593 73,11.1548256 73,7.5 C73,3.84517445 75.6142543,0.800940701 79.0748253,0.135236228 L79.0748253,0.135236228 L79.075,0.075 L79.4440889,0.0737493062 C79.7890764,0.0251388026 80.1416024,2.27373675e-13 80.5,2.27373675e-13 C80.8592175,2.27373675e-13 81.2125366,0.0252539617 81.5582788,0.0740833152 L81.5582788,0.0740833152 L87.5,0.074 L87.5,2.27373675e-13 L97.5,2.27373675e-13 L107,0 L107,0.074 L112.941721,0.0740833152 C113.287463,0.0252539617 113.640782,0 114,0 C114.358398,0 114.710924,0.0251388026 115.055911,0.0737493062 L115.425,0.075 L115.425175,0.135236228 C118.885746,0.800940701 121.5,3.84517445 121.5,7.5 C121.5,11.1548256 118.885746,14.1990593 115.425175,14.8647638 L115.425,14.925 L115.062896,14.9252631 C114.715683,14.9745207 114.360817,15 114,15 C113.638022,15 113.282033,14.9743564 112.933752,14.9247868 L106.999,14.924 L107,37 L97,37 L87.5,37 Z" id="nob"></path>
            <path d="M181.5,131.5 L181.501,109.424 L175.566248,109.424787 C175.217967,109.474356 174.861978,109.5 174.5,109.5 C174.139183,109.5 173.784317,109.474521 173.437104,109.425263 L173.437104,109.425263 L173.075,109.425 L173.074825,109.364764 C169.614254,108.699059 167,105.654826 167,102 C167,98.3451744 169.614254,95.3009407 173.074825,94.6352362 L173.074825,94.6352362 L173.075,94.575 L173.444089,94.5737493 C173.789076,94.5251388 174.141602,94.5 174.5,94.5 C174.859218,94.5 175.212537,94.525254 175.558279,94.5740833 L175.558279,94.5740833 L181.5,94.574 L181.5,94.5 L191.5,94.5 L201,94.5 L201,94.574 L206.941721,94.5740833 C207.287463,94.525254 207.640782,94.5 208,94.5 C208.358398,94.5 208.710924,94.5251388 209.055911,94.5737493 L209.425,94.575 L209.425175,94.6352362 C212.885746,95.3009407 215.5,98.3451744 215.5,102 C215.5,105.654826 212.885746,108.699059 209.425175,109.364764 L209.425,109.425 L209.062896,109.425263 C208.715683,109.474521 208.360817,109.5 208,109.5 C207.638022,109.5 207.282033,109.474356 206.933752,109.424787 L200.999,109.424 L201,131.5 L191,131.5 L181.5,131.5 Z" id="nob-copy-2" transform="translate(191.250000, 113.000000) rotate(90.000000) translate(-191.250000, -113.000000) "></path>
            <path d="M154.5,64.5 L154.501,42.424 L148.566248,42.4247868 C148.217967,42.4743564 147.861978,42.5 147.5,42.5 C147.139183,42.5 146.784317,42.4745207 146.437104,42.4252631 L146.437104,42.4252631 L146.075,42.425 L146.074825,42.3647638 C142.614254,41.6990593 140,38.6548256 140,35 C140,31.3451744 142.614254,28.3009407 146.074825,27.6352362 L146.074825,27.6352362 L146.075,27.575 L146.444089,27.5737493 C146.789076,27.5251388 147.141602,27.5 147.5,27.5 C147.859218,27.5 148.212537,27.525254 148.558279,27.5740833 L148.558279,27.5740833 L154.5,27.574 L154.5,27.5 L164.5,27.5 L174,27.5 L174,27.574 L179.941721,27.5740833 C180.287463,27.525254 180.640782,27.5 181,27.5 C181.358398,27.5 181.710924,27.5251388 182.055911,27.5737493 L182.425,27.575 L182.425175,27.6352362 C185.885746,28.3009407 188.5,31.3451744 188.5,35 C188.5,38.6548256 185.885746,41.6990593 182.425175,42.3647638 L182.425,42.425 L182.062896,42.4252631 C181.715683,42.4745207 181.360817,42.5 181,42.5 C180.638022,42.5 180.282033,42.4743564 179.933752,42.4247868 L173.999,42.424 L174,64.5 L164,64.5 L154.5,64.5 Z" id="nob-copy-3" transform="translate(164.250000, 46.000000) rotate(45.000000) translate(-164.250000, -46.000000) "></path>
            <path d="M20.5,64.5 L20.501,42.424 L14.5662485,42.4247868 C14.2179667,42.4743564 13.8619781,42.5 13.5,42.5 C13.1391832,42.5 12.7843174,42.4745207 12.4371037,42.4252631 L12.4371037,42.4252631 L12.075,42.425 L12.0748253,42.3647638 C8.61425427,41.6990593 6,38.6548256 6,35 C6,31.3451744 8.61425427,28.3009407 12.0748253,27.6352362 L12.0748253,27.6352362 L12.075,27.575 L12.4440889,27.5737493 C12.7890764,27.5251388 13.1416024,27.5 13.5,27.5 C13.8592175,27.5 14.2125366,27.525254 14.5582788,27.5740833 L14.5582788,27.5740833 L20.5,27.574 L20.5,27.5 L30.5,27.5 L40,27.5 L40,27.574 L45.9417212,27.5740833 C46.2874634,27.525254 46.6407825,27.5 47,27.5 C47.3583976,27.5 47.7109236,27.5251388 48.0559111,27.5737493 L48.425,27.575 L48.4251747,27.6352362 C51.8857457,28.3009407 54.5,31.3451744 54.5,35 C54.5,38.6548256 51.8857457,41.6990593 48.4251747,42.3647638 L48.425,42.425 L48.0628963,42.4252631 C47.7156826,42.4745207 47.3608168,42.5 47,42.5 C46.6380219,42.5 46.2820333,42.4743564 45.9337515,42.4247868 L39.999,42.424 L40,64.5 L30,64.5 L20.5,64.5 Z" id="nob-copy-4" transform="translate(30.250000, 46.000000) rotate(315.000000) translate(-30.250000, -46.000000) "></path>
        </g>
        <g id="4-nobs-copy" transform="translate(105.000000, 157.000000) scale(-1, -1) translate(-105.000000, -157.000000) translate(0.000000, 88.000000)" fill="#191919">
            <path d="M87.5,37 L87.501,14.924 L81.5662485,14.9247868 C81.2179667,14.9743564 80.8619781,15 80.5,15 C80.1391832,15 79.7843174,14.9745207 79.4371037,14.9252631 L79.4371037,14.9252631 L79.075,14.925 L79.0748253,14.8647638 C75.6142543,14.1990593 73,11.1548256 73,7.5 C73,3.84517445 75.6142543,0.800940701 79.0748253,0.135236228 L79.0748253,0.135236228 L79.075,0.075 L79.4440889,0.0737493062 C79.7890764,0.0251388026 80.1416024,2.27373675e-13 80.5,2.27373675e-13 C80.8592175,2.27373675e-13 81.2125366,0.0252539617 81.5582788,0.0740833152 L81.5582788,0.0740833152 L87.5,0.074 L87.5,2.27373675e-13 L97.5,2.27373675e-13 L107,0 L107,0.074 L112.941721,0.0740833152 C113.287463,0.0252539617 113.640782,0 114,0 C114.358398,0 114.710924,0.0251388026 115.055911,0.0737493062 L115.425,0.075 L115.425175,0.135236228 C118.885746,0.800940701 121.5,3.84517445 121.5,7.5 C121.5,11.1548256 118.885746,14.1990593 115.425175,14.8647638 L115.425,14.925 L115.062896,14.9252631 C114.715683,14.9745207 114.360817,15 114,15 C113.638022,15 113.282033,14.9743564 112.933752,14.9247868 L106.999,14.924 L107,37 L97,37 L87.5,37 Z" id="nob"></path>
            <path d="M181.5,131.5 L181.501,109.424 L175.566248,109.424787 C175.217967,109.474356 174.861978,109.5 174.5,109.5 C174.139183,109.5 173.784317,109.474521 173.437104,109.425263 L173.437104,109.425263 L173.075,109.425 L173.074825,109.364764 C169.614254,108.699059 167,105.654826 167,102 C167,98.3451744 169.614254,95.3009407 173.074825,94.6352362 L173.074825,94.6352362 L173.075,94.575 L173.444089,94.5737493 C173.789076,94.5251388 174.141602,94.5 174.5,94.5 C174.859218,94.5 175.212537,94.525254 175.558279,94.5740833 L175.558279,94.5740833 L181.5,94.574 L181.5,94.5 L191.5,94.5 L201,94.5 L201,94.574 L206.941721,94.5740833 C207.287463,94.525254 207.640782,94.5 208,94.5 C208.358398,94.5 208.710924,94.5251388 209.055911,94.5737493 L209.425,94.575 L209.425175,94.6352362 C212.885746,95.3009407 215.5,98.3451744 215.5,102 C215.5,105.654826 212.885746,108.699059 209.425175,109.364764 L209.425,109.425 L209.062896,109.425263 C208.715683,109.474521 208.360817,109.5 208,109.5 C207.638022,109.5 207.282033,109.474356 206.933752,109.424787 L200.999,109.424 L201,131.5 L191,131.5 L181.5,131.5 Z" id="nob-copy-2" transform="translate(191.250000, 113.000000) rotate(90.000000) translate(-191.250000, -113.000000) "></path>
            <path d="M154.5,64.5 L154.501,42.424 L148.566248,42.4247868 C148.217967,42.4743564 147.861978,42.5 147.5,42.5 C147.139183,42.5 146.784317,42.4745207 146.437104,42.4252631 L146.437104,42.4252631 L146.075,42.425 L146.074825,42.3647638 C142.614254,41.6990593 140,38.6548256 140,35 C140,31.3451744 142.614254,28.3009407 146.074825,27.6352362 L146.074825,27.6352362 L146.075,27.575 L146.444089,27.5737493 C146.789076,27.5251388 147.141602,27.5 147.5,27.5 C147.859218,27.5 148.212537,27.525254 148.558279,27.5740833 L148.558279,27.5740833 L154.5,27.574 L154.5,27.5 L164.5,27.5 L174,27.5 L174,27.574 L179.941721,27.5740833 C180.287463,27.525254 180.640782,27.5 181,27.5 C181.358398,27.5 181.710924,27.5251388 182.055911,27.5737493 L182.425,27.575 L182.425175,27.6352362 C185.885746,28.3009407 188.5,31.3451744 188.5,35 C188.5,38.6548256 185.885746,41.6990593 182.425175,42.3647638 L182.425,42.425 L182.062896,42.4252631 C181.715683,42.4745207 181.360817,42.5 181,42.5 C180.638022,42.5 180.282033,42.4743564 179.933752,42.4247868 L173.999,42.424 L174,64.5 L164,64.5 L154.5,64.5 Z" id="nob-copy-3" transform="translate(164.250000, 46.000000) rotate(45.000000) translate(-164.250000, -46.000000) "></path>
            <path d="M20.5,64.5 L20.501,42.424 L14.5662485,42.4247868 C14.2179667,42.4743564 13.8619781,42.5 13.5,42.5 C13.1391832,42.5 12.7843174,42.4745207 12.4371037,42.4252631 L12.4371037,42.4252631 L12.075,42.425 L12.0748253,42.3647638 C8.61425427,41.6990593 6,38.6548256 6,35 C6,31.3451744 8.61425427,28.3009407 12.0748253,27.6352362 L12.0748253,27.6352362 L12.075,27.575 L12.4440889,27.5737493 C12.7890764,27.5251388 13.1416024,27.5 13.5,27.5 C13.8592175,27.5 14.2125366,27.525254 14.5582788,27.5740833 L14.5582788,27.5740833 L20.5,27.574 L20.5,27.5 L30.5,27.5 L40,27.5 L40,27.574 L45.9417212,27.5740833 C46.2874634,27.525254 46.6407825,27.5 47,27.5 C47.3583976,27.5 47.7109236,27.5251388 48.0559111,27.5737493 L48.425,27.575 L48.4251747,27.6352362 C51.8857457,28.3009407 54.5,31.3451744 54.5,35 C54.5,38.6548256 51.8857457,41.6990593 48.4251747,42.3647638 L48.425,42.425 L48.0628963,42.4252631 C47.7156826,42.4745207 47.3608168,42.5 47,42.5 C46.6380219,42.5 46.2820333,42.4743564 45.9337515,42.4247868 L39.999,42.424 L40,64.5 L30,64.5 L20.5,64.5 Z" id="nob-copy-4" transform="translate(30.250000, 46.000000) rotate(315.000000) translate(-30.250000, -46.000000) "></path>
        </g>
        <path d="M112.5,34 C156.406638,34 192,69.5933624 192,113.5 C192,157.406638 156.406638,193 112.5,193 C68.5933624,193 33,157.406638 33,113.5 C33,69.5933624 68.5933624,34 112.5,34 Z M140.5,137 C135.253295,137 131,141.253295 131,146.5 C131,151.746705 135.253295,156 140.5,156 C145.746705,156 150,151.746705 150,146.5 C150,141.253295 145.746705,137 140.5,137 Z M86.5,62 C77.3873016,62 70,69.3873016 70,78.5 C70,87.6126984 77.3873016,95 86.5,95 C95.6126984,95 103,87.6126984 103,78.5 C103,69.3873016 95.6126984,62 86.5,62 Z" id="body" fill="#191919"></path>
    </g>
</svg>